<svg width="80" height="80" viewBox="0 0 80 80" fill="none" xmlns="http://www.w3.org/2000/svg">
<path d="M0 40V71C0 75.9706 4.02944 80 9 80H71C75.9706 80 80 75.9706 80 71V9C80 4.02944 75.9706 0 71 0H9C4.02944 0 0 4.02944 0 9V40Z" fill="#3E863B"/>
<path d="M39.9125 71.9938C39.075 71.9938 38.225 71.7688 37.4875 71.3438L29.775 66.7812C28.625 66.1313 29.1875 65.9062 29.5625 65.7812C31.1 65.2437 31.4125 65.1313 33.05 64.1938C33.225 64.0938 33.45 64.1313 33.625 64.2438L39.55 67.7563C39.7625 67.8813 40.0625 67.8813 40.2625 67.7563L63.35 54.4313C63.5625 54.3063 63.7 54.0563 63.7 53.8063V27.1562C63.7 26.8938 63.5625 26.6562 63.3375 26.5187L40.2625 13.2063C40.05 13.0813 39.7625 13.0813 39.55 13.2063L16.4875 26.5312C16.2625 26.6562 16.125 26.9062 16.125 27.1687V53.8063C16.125 54.0563 16.2625 54.3063 16.4875 54.4188L22.8125 58.0688C26.25 59.7813 28.35 57.7688 28.35 55.7313V29.4312C28.35 29.0562 28.65 28.7687 29.025 28.7687H31.95C32.3125 28.7687 32.625 29.0562 32.625 29.4312V55.7438C32.625 60.3188 30.125 62.9438 25.7875 62.9438C24.45 62.9438 23.4 62.9438 20.475 61.4938L14.425 58.0063C12.925 57.1438 12 55.5313 12 53.7938V27.1562C12 25.4312 12.925 23.8062 14.425 22.9437L37.4875 9.61875C38.95 8.79375 40.8875 8.79375 42.3375 9.61875L65.425 22.9562C66.925 23.8187 67.85 25.4312 67.85 27.1687V53.8063C67.85 55.5313 66.925 57.1438 65.425 58.0188L42.3375 71.3438C41.6 71.7688 40.7625 71.9938 39.9125 71.9938ZM58.55 45.7313C58.55 40.7438 55.175 39.4187 48.0875 38.4812C40.9125 37.5312 40.1875 37.0437 40.1875 35.3687C40.1875 33.9812 40.8 32.1313 46.1125 32.1313C50.85 32.1313 52.6 33.1562 53.325 36.3562C53.3875 36.6562 53.6625 36.8813 53.975 36.8813H56.975C57.1625 36.8813 57.3375 36.8062 57.4625 36.6687C57.5875 36.5312 57.65 36.3438 57.6375 36.1562C57.175 30.6438 53.5125 28.0812 46.1125 28.0812C39.525 28.0812 35.6 30.8562 35.6 35.5187C35.6 40.5687 39.5125 41.9688 45.825 42.5938C53.3875 43.3313 53.975 44.4438 53.975 45.9313C53.975 48.5063 51.9 49.6063 47.0375 49.6063C40.925 49.6063 39.5875 48.0687 39.1375 45.0312C39.0875 44.7063 38.8125 44.4688 38.475 44.4688H35.4875C35.1125 44.4688 34.825 44.7688 34.825 45.1313C34.825 49.0188 36.9375 53.6562 47.05 53.6562C54.35 53.6437 58.55 50.7563 58.55 45.7313V45.7313Z" fill="white"/>
</svg>
