<svg width="80" height="80" viewBox="0 0 80 80" fill="none" xmlns="http://www.w3.org/2000/svg">
<rect width="80" height="80" rx="9" fill="#06C5F9"/>
<path d="M39.5 47C43.0899 47 46 44.0899 46 40.5C46 36.9101 43.0899 34 39.5 34C35.9101 34 33 36.9101 33 40.5C33 44.0899 35.9101 47 39.5 47Z" fill="white"/>
<path d="M21.2764 53L19.8361 52.6447C9.13712 50.0377 3 45.6048 3 40.5C3 35.3916 9.14076 30.9623 19.8361 28.3553L21.2764 28.0035L21.6812 29.3791C22.7626 32.9806 24.148 36.4906 25.8237 39.8738L26.1336 40.5L25.8237 41.1262C24.1463 44.5142 22.7569 48.0253 21.6812 51.6279L21.2764 53V53ZM19.1724 31.5569C11.0443 33.7663 6.05215 37.1366 6.05215 40.5C6.05215 43.8563 11.0406 47.2302 19.1724 49.4361C20.1679 46.3824 21.3712 43.3954 22.7642 40.5C21.3612 37.5997 20.1612 34.612 19.1724 31.5569V31.5569ZM57.7236 53L57.3224 51.6209C56.2382 48.0187 54.8516 44.5077 53.1763 41.1227L52.8664 40.5L53.1763 39.8703C54.8537 36.4893 56.2358 32.9747 57.3224 29.3721L57.7236 28L59.1639 28.3518C69.8665 30.9588 76 35.3881 76 40.5C76 45.6084 69.8629 50.0377 59.1639 52.6447L57.7236 53V53ZM56.2285 40.5C57.6871 43.5467 58.9014 46.5442 59.8276 49.4361C67.9594 47.2302 72.9515 43.8563 72.9515 40.5C72.9515 37.1366 67.963 33.7698 59.8276 31.5569C58.8331 34.611 57.6308 37.5986 56.2285 40.5V40.5Z" fill="white"/>
<path d="M19.149 31.1958L18.7478 29.7726C15.7351 19.1602 16.6469 11.5586 21.2535 8.90917C25.758 6.29988 33.0052 9.38359 40.5954 17.175L41.6312 18.2406L40.5954 19.3025C37.8995 22.1078 35.4356 25.1272 33.2277 28.3311L32.8156 28.9222L32.1007 28.9806C28.2184 29.2857 24.3674 29.907 20.586 30.8382L19.149 31.1958V31.1958ZM24.9191 11.0185C24.1021 11.0185 23.3799 11.1973 22.7708 11.5477C19.7508 13.2884 19.2183 19.35 21.2973 27.5318C24.547 26.8129 27.826 26.2984 31.1305 26.0101C33.0436 23.2951 35.1306 20.7072 37.3784 18.2625C32.6259 13.6387 28.1397 11.0185 24.9191 11.0185V11.0185ZM54.0869 72.9992C49.7538 72.9992 44.188 69.7294 38.4106 63.7955L37.3784 62.7335L38.4106 61.6752C41.1069 58.8655 43.572 55.8425 45.7819 52.6358L46.1904 52.0519L46.898 51.9825C50.7816 51.6829 54.634 51.064 58.4163 50.1323L59.857 49.7674L60.2618 51.1943C63.26 61.7993 62.3518 69.4119 57.7525 72.0613C56.6358 72.6946 55.3704 73.0184 54.0869 72.9992V72.9992ZM41.6312 62.708C46.38 67.3317 50.8699 69.9556 54.0869 69.9556C54.9075 69.9556 55.6297 69.7732 56.2352 69.4265C59.2588 67.6821 59.795 61.6095 57.7087 53.4277C54.4626 54.1503 51.1799 54.6685 47.8682 54.9568C45.9632 57.676 43.8796 60.2654 41.6312 62.708V62.708Z" fill="white"/>
<path d="M59.8515 31.1946L58.411 30.8333C54.6295 29.8991 50.7777 29.2778 46.8944 28.9757L46.1869 28.9136L45.7785 28.3224C43.572 25.1167 41.107 22.097 38.4083 19.2936L37.3762 18.2316L38.4083 17.1733C45.9936 9.38532 53.2362 6.30151 57.7473 8.90724C62.3496 11.5604 63.2649 19.1623 60.2563 29.7713L59.8515 31.1946ZM47.8645 26.0087C51.3435 26.3189 54.6402 26.8407 57.7035 27.5305C59.7859 19.3484 59.2534 13.2866 56.2302 11.5422C53.2253 9.80136 47.5691 12.4655 41.6284 18.2608C43.8749 20.706 45.9608 23.2898 47.8645 26.0087ZM24.9187 72.9993C23.6355 73.0176 22.3706 72.6939 21.2537 72.0613C16.6478 69.4118 15.7361 61.8027 18.7447 51.1937L19.1386 49.7667L20.579 50.1317C24.0946 51.0185 27.9675 51.6426 32.0957 51.982L32.8031 52.0513L33.2152 52.6352C35.4179 55.8394 37.8831 58.8649 40.5818 61.675L41.6175 62.7333L40.5818 63.7953C34.8089 69.733 29.2439 72.9993 24.9187 72.9993V72.9993ZM21.2975 53.4308C19.2188 61.6129 19.7512 67.6856 22.7708 69.4301C25.7794 71.1453 31.4174 68.4995 37.3762 62.7077C35.1296 60.2622 33.043 57.6742 31.1293 54.9599C27.8219 54.6672 24.5375 54.1564 21.2975 53.4308V53.4308Z" fill="white"/>
<path d="M39.5036 55C37.0335 55 34.4986 54.8967 31.9529 54.6867L31.2482 54.6261L30.8419 54.0493C29.4064 52.0052 28.0557 49.9039 26.7933 47.7507C25.5402 45.5916 24.3755 43.3835 23.302 41.1316L23 40.5013L23.302 39.864C24.3771 37.6137 25.5385 35.4062 26.7933 33.2484C28.041 31.1263 29.4037 29.0042 30.8419 26.9462L31.2482 26.3765L31.9529 26.3124C36.9755 25.8959 42.0245 25.8959 47.0471 26.3124L47.7446 26.3801L48.1509 26.9498C51.0266 31.04 53.5523 35.3609 55.7016 39.8676L56 40.5049L55.7016 41.1351C53.5582 45.6448 51.0323 49.9662 48.1509 54.0529L47.7446 54.6297L47.0471 54.6902C44.5086 54.8932 41.9701 55 39.5036 55V55ZM32.9094 51.7812C37.3499 52.1124 41.6573 52.1124 46.0942 51.7812C48.5712 48.1894 50.773 44.4189 52.6813 40.5013C50.7798 36.5803 48.5776 32.8093 46.0942 29.2214C41.7058 28.8867 37.2978 28.8867 32.9094 29.2214C30.4239 32.808 28.2217 36.5792 26.3223 40.5013C28.2347 44.4167 30.4364 48.1869 32.9094 51.7812V51.7812Z" fill="white"/>
</svg>
