<svg width="80" height="80" viewBox="0 0 80 80" fill="none" xmlns="http://www.w3.org/2000/svg">
<rect width="80" height="80" rx="9" fill="#007ACC"/>
<path d="M20.0216 42.8328L20 45.6406H28.8646V71H35.1353V45.6406H44V42.8872C44 41.3632 43.9675 40.0899 43.9244 40.0572C43.892 40.0138 38.4974 39.9918 31.9569 40.0028L20.0543 40.0355L20.0218 42.8326L20.0216 42.8328Z" fill="white"/>
<path d="M60.1901 40.285C61.92 40.725 63.2394 41.5053 64.4504 42.7807C65.0776 43.4625 66.0074 44.705 66.0832 45.0018C66.1045 45.0897 63.142 47.1127 61.3471 48.245C61.2822 48.2891 61.0225 48.0032 60.7306 47.5632C59.8548 46.2661 58.9357 45.7053 57.5299 45.6065C55.4649 45.4634 54.1347 46.5629 54.1456 48.3987C54.1456 48.9377 54.2212 49.2564 54.4375 49.6963C54.8917 50.6528 55.735 51.2245 58.3843 52.3898C63.2609 54.5229 65.3477 55.9301 66.6455 57.931C68.0944 60.1631 68.4188 63.7251 67.4347 66.3747C66.3536 69.2551 63.6721 71.2124 59.8979 71.8609C58.7303 72.0698 55.9623 72.0368 54.7079 71.806C51.9723 71.3112 49.377 69.937 47.7767 68.1339C47.1495 67.4302 45.9275 65.5941 46.0034 65.4621C46.0358 65.4183 46.3168 65.2424 46.6303 65.0554C46.9331 64.8796 48.0795 64.2086 49.1607 63.5711L51.1179 62.4166L51.5287 63.0324C52.1019 63.9229 53.3561 65.1434 54.1131 65.55C56.2864 66.7156 59.271 66.5506 60.7415 65.2091C61.3687 64.6266 61.6281 64.0219 61.6281 63.1312C61.6281 62.3287 61.5307 61.977 61.1199 61.3725C60.5903 60.6028 59.5089 59.954 56.4378 58.602C52.9236 57.0625 51.4098 56.106 50.0258 54.5887C49.2256 53.7093 48.4685 52.3019 48.1551 51.1255C47.8956 50.1471 47.8304 47.6953 48.0361 46.7058C48.7607 43.2534 51.3233 40.8459 55.0213 40.1311C56.2214 39.9003 59.0113 39.9882 60.1901 40.2853V40.285Z" fill="white"/>
</svg>
