<svg width="80" height="80" viewBox="0 0 80 80" fill="none" xmlns="http://www.w3.org/2000/svg">
<path d="M0 40V71C0 75.9706 4.02944 80 9 80H71C75.9706 80 80 75.9706 80 71V9C80 4.02944 75.9706 0 71 0H9C4.02944 0 0 4.02944 0 9V40Z" fill="#F05133"/>
<path d="M70.7901 37.1514L42.8461 9.20744C42.4635 8.82465 42.0093 8.52099 41.5093 8.31381C41.0093 8.10663 40.4733 8 39.9321 8C39.3909 8 38.855 8.10663 38.355 8.31381C37.855 8.52099 37.4007 8.82465 37.0181 9.20744L30.5261 15.6994L35.4101 20.5834C36.5303 20.0465 37.7895 19.8705 39.014 20.0797C40.2385 20.2889 41.3678 20.873 42.2462 21.7513C43.1246 22.6297 43.7087 23.7591 43.9179 24.9836C44.1271 26.208 43.9511 27.4673 43.4141 28.5874L51.4141 36.5874C52.6913 35.9774 54.143 35.8385 55.5127 36.1953C56.8824 36.5521 58.0819 37.3816 58.8991 38.5373C59.7163 39.6929 60.0987 41.1003 59.9786 42.5106C59.8585 43.9209 59.2437 45.2433 58.2428 46.2442C57.242 47.245 55.9196 47.8598 54.5093 47.9799C53.099 48.1 51.6916 47.7176 50.536 46.9004C49.3803 46.0832 48.5508 44.8837 48.194 43.514C47.8372 42.1444 47.9761 40.6926 48.5861 39.4154L40.5861 31.4154C40.3944 31.5067 40.1981 31.5881 39.9981 31.6594V48.3434C41.3326 48.8152 42.4572 49.7436 43.1734 50.9644C43.8895 52.1852 44.1511 53.6199 43.9117 55.0149C43.6724 56.4099 42.9476 57.6754 41.8655 58.5877C40.7833 59.4999 39.4135 60.0003 37.9981 60.0003C36.5828 60.0003 35.2129 59.4999 34.1308 58.5877C33.0487 57.6754 32.3239 56.4099 32.0845 55.0149C31.8452 53.6199 32.1067 52.1852 32.8229 50.9644C33.539 49.7436 34.6637 48.8152 35.9981 48.3434V31.6594C35.2046 31.3792 34.4788 30.9352 33.8681 30.3562C33.2573 29.7772 32.7752 29.0761 32.4531 28.2987C32.1309 27.5212 31.9759 26.6846 31.9981 25.8433C32.0204 25.002 32.2193 24.1748 32.5821 23.4154L27.6981 18.5314L9.20613 37.0234C8.43377 37.7974 8 38.8461 8 39.9394C8 41.0328 8.43377 42.0815 9.20613 42.8554L37.1501 70.7994C37.5327 71.1822 37.987 71.4859 38.487 71.6931C38.987 71.9002 39.5229 72.0069 40.0641 72.0069C40.6054 72.0069 41.1413 71.9002 41.6413 71.6931C42.1413 71.4859 42.5955 71.1822 42.9781 70.7994L70.7901 42.9874C71.5625 42.2135 71.9963 41.1648 71.9963 40.0714C71.9963 38.9781 71.5625 37.9294 70.7901 37.1554V37.1514Z" fill="white"/>
</svg>
