<svg width="80" height="80" viewBox="0 0 80 80" fill="none" xmlns="http://www.w3.org/2000/svg">
<path d="M0 40V71C0 75.9706 4.02944 80 9 80H71C75.9706 80 80 75.9706 80 71V9C80 4.02944 75.9706 0 71 0H9C4.02944 0 0 4.02944 0 9V40Z" fill="#6E4FB4"/>
<path d="M52.3497 52.354C54.6717 52.156 56.4637 50.114 56.3497 47.676C56.2237 45.238 54.2237 43.282 51.7977 43.282H51.6297C50.4215 43.3253 49.2799 43.8466 48.4559 44.7313C47.6319 45.616 47.193 46.7918 47.2357 48C47.3177 49.282 47.8377 50.312 48.5577 51.072C45.7557 56.51 41.5677 60.502 35.2037 63.864C30.9337 66.094 26.4217 66.938 22.0277 66.334C18.3497 65.824 15.4757 64.18 13.7157 61.542C11.0777 57.542 10.8377 53.24 13.0377 48.918C14.6397 45.804 17.0377 43.52 18.6297 42.406C18.1512 41.066 17.7787 39.6904 17.5157 38.292C5.68371 46.762 6.89171 58.356 10.4857 63.826C13.1637 67.826 18.6297 70.378 24.6197 70.378C26.2257 70.378 27.9017 70.264 29.5377 69.856C39.9357 67.856 47.7997 61.626 52.3077 52.44L52.3497 52.354ZM66.6097 42.366C60.4237 35.094 51.3077 31.094 40.9237 31.094H39.5577C38.8917 29.624 37.3277 28.7 35.5677 28.7H35.4537C32.9337 28.7 30.9737 30.866 31.0557 33.378C31.1417 35.772 33.1697 37.772 35.6077 37.772H35.8077C36.6727 37.7368 37.5094 37.4541 38.2185 36.9574C38.9276 36.4607 39.4791 35.7709 39.8077 34.97H41.2857C47.4437 34.97 53.2677 36.772 58.5897 40.284C62.6517 42.958 65.5797 46.482 67.2137 50.678C68.6517 54.104 68.5677 57.47 67.0877 60.272C64.8177 64.656 60.9737 66.978 55.9117 66.978C52.7137 66.978 49.5997 65.978 47.9937 65.26C47.0357 66.052 45.4317 67.374 44.2737 68.178C47.7957 69.77 51.3477 70.688 54.7857 70.688C62.5777 70.688 68.3697 66.302 70.5677 62.064C72.9617 57.272 72.7657 49.198 66.6497 42.282L66.6097 42.366ZM25.2977 53.792C25.3524 54.9687 25.8556 56.0799 26.7041 56.8971C27.5525 57.7143 28.6817 58.1755 29.8597 58.186H30.0177C30.6182 58.1717 31.2098 58.0376 31.7577 57.7913C32.3057 57.5451 32.7988 57.1918 33.2082 56.7523C33.6176 56.3127 33.9349 55.7957 34.1416 55.2317C34.3483 54.6677 34.4401 54.068 34.4117 53.468C34.4117 51.07 32.3397 49.07 29.9017 49.07H29.7337C29.5797 49.07 29.3397 49.07 29.1317 49.156C25.8197 43.562 24.4217 37.562 24.9417 31.092C25.2557 26.218 26.8597 21.988 29.7337 18.468C32.1317 15.478 36.6397 13.988 39.7237 13.916C48.3497 13.748 51.9537 24.508 52.2257 28.78L56.2257 29.978C55.2977 16.874 47.1537 10 39.3617 10C32.0497 10 25.2977 15.312 22.5797 23.104C18.8697 33.502 21.3077 43.48 25.8597 51.48C25.4657 51.99 25.2257 52.918 25.2977 53.792Z" fill="white"/>
</svg>
