<svg width="80" height="80" viewBox="0 0 80 80" fill="none" xmlns="http://www.w3.org/2000/svg">
<path d="M0 40V71C0 75.9706 4.02944 80 9 80H71C75.9706 80 80 75.9706 80 71V9C80 4.02944 75.9706 0 71 0H9C4.02944 0 0 4.02944 0 9V40Z" fill="#CD679A"/>
<path d="M37.426 54.5807C37.3918 54.6495 37.3576 54.7045 37.426 54.5807V54.5807ZM65.8385 44.6128C63.5438 44.6128 61.281 45.1398 59.2235 46.1595C58.5506 44.7961 57.8549 43.6045 57.7408 42.7108C57.604 41.6682 57.4557 41.0495 57.6154 39.8121C57.775 38.5747 58.4936 36.8217 58.4822 36.6957C58.4708 36.5697 58.3225 35.9395 56.8512 35.9281C55.38 35.9166 54.114 36.2145 53.9657 36.604C53.7054 37.3158 53.5032 38.0477 53.3613 38.7924C53.0989 40.1329 50.421 44.9221 48.9041 47.4198C48.4023 46.446 47.9803 45.5866 47.8891 44.8992C47.7522 43.8566 47.604 43.2379 47.7636 42.0005C47.9233 40.7631 48.6418 39.0101 48.6304 38.8841C48.619 38.758 48.4707 38.1279 47.0018 38.1164C45.5328 38.105 44.2645 38.4029 44.1163 38.7924C43.968 39.182 43.8083 40.0986 43.5118 40.9808C43.2153 41.863 39.6455 49.8374 38.7125 51.9111C38.2335 52.9652 37.8229 53.8131 37.5264 54.3859C37.4808 54.4776 37.4465 54.5349 37.4237 54.5807C37.458 54.5234 37.4808 54.4661 37.4808 54.4891C37.2299 54.9817 37.0816 55.2567 37.0816 55.2567V55.2682C36.8877 55.6348 36.671 55.9671 36.5684 55.9671C36.4999 55.9671 36.3517 55.0046 36.6026 53.687C37.1386 50.9143 38.4046 46.6064 38.3932 46.4574C38.3818 46.3772 38.6327 45.6325 37.5606 45.2315C36.5227 44.8534 36.1464 45.4835 36.0551 45.4835C35.9639 45.4835 35.8955 45.7127 35.8955 45.7127C35.8955 45.7127 37.0474 40.8547 33.6829 40.8547C31.5843 40.8547 28.6646 43.1691 27.2298 45.2658C26.3288 45.7585 24.3786 46.8241 22.3256 47.9583L19.9648 49.2645C19.9077 49.2072 19.8621 49.1499 19.8051 49.0926C15.7221 44.7159 8.18555 41.6224 8.5049 35.7447C8.61895 33.6022 9.36028 27.9766 22.9985 21.148C34.1756 15.5568 43.1103 17.0921 44.65 20.5064C46.8626 25.3758 39.8713 34.4386 28.2654 35.7447C23.8402 36.2374 21.5159 34.5188 20.9342 33.8772C20.3297 33.2012 20.2385 33.1668 20.0104 33.2929C19.634 33.4991 19.8735 34.0949 20.0104 34.4501C20.3525 35.3552 21.7782 36.9592 24.2075 37.7612C26.3402 38.4601 31.5273 38.8497 37.7978 36.4093C44.8439 33.6824 50.3298 26.0862 48.7194 19.7273C47.0816 13.2653 36.4155 11.1457 26.3311 14.7433C20.3206 16.8859 13.822 20.2543 9.14814 24.6425C3.59385 29.8671 2.70653 34.4157 3.07149 36.3176C4.37168 43.066 13.6304 47.4657 17.3347 50.7196L16.8215 51.006C14.9625 51.9341 7.90499 55.6462 6.13719 59.5647C4.14129 64.0102 6.46794 67.1953 7.99395 67.6307C12.7613 68.9597 17.6404 66.5652 20.2636 62.6353C22.8868 58.7054 22.5674 53.5725 21.3585 51.2352C21.3471 51.2008 21.3243 51.1779 21.3129 51.1435C22.6814 50.3292 24.0616 49.5347 25.4529 48.7604C24.9967 49.9978 24.666 51.4872 24.4949 53.6412C24.2896 56.1618 25.3275 59.4272 26.6733 60.7104C27.2663 61.2718 27.9826 61.2833 28.4297 61.2833C30.0036 61.2833 30.7107 59.9771 31.4976 58.4189C32.4671 56.517 33.3225 54.3057 33.3225 54.3057C33.3225 54.3057 32.2504 60.2865 35.1815 60.2865C36.2536 60.2865 37.3257 58.9002 37.8047 58.1898V58.2013C37.8047 58.2013 37.8275 58.1554 37.8845 58.0638C37.9986 57.8919 38.0556 57.7888 38.0556 57.7888V57.7544C38.489 57.0097 39.4356 55.3025 40.8612 52.484C42.7089 48.8406 44.4744 44.292 44.4744 44.292C44.6455 45.2911 44.8827 46.2787 45.1815 47.248C45.5008 48.3364 46.1738 49.528 46.7098 50.6852C46.2764 51.281 46.0141 51.6247 46.0141 51.6247C46.0141 51.6339 46.0186 51.6407 46.0255 51.6476C45.6833 52.1059 45.2956 52.5986 44.8964 53.0798C43.4388 54.8213 41.7029 56.8149 41.4748 57.3878C41.2011 58.0638 41.2695 58.5679 41.7942 58.9574C42.182 59.2553 42.8663 59.3012 43.5848 59.2439C44.8964 59.1522 45.8202 58.8314 46.265 58.6252C47.0854 58.3299 47.8608 57.9211 48.5688 57.4107C49.9945 56.3566 50.8613 54.8442 50.7814 52.8506C50.7358 51.7507 50.3822 50.6508 49.9489 49.6197C50.0743 49.4363 50.2112 49.2416 50.3366 49.0468C51.8208 46.8221 53.1581 44.5019 54.3398 42.1013C54.5109 43.1004 54.7458 44.088 55.0469 45.0573C55.3207 45.9854 55.8567 47.0051 56.3471 48.0019C54.2258 49.7319 52.9142 51.737 52.4603 53.0546C51.6163 55.495 52.2778 56.5949 53.5209 56.847C54.0798 56.9616 54.8781 56.698 55.4712 56.446C56.3517 56.1504 57.182 55.7219 57.9324 55.1742C59.3581 54.1201 60.7381 52.6421 60.6446 50.6371C60.6104 49.7319 60.3594 48.8268 60.0287 47.956C61.8193 47.1999 64.146 46.7874 67.1113 47.1311C73.4617 47.8758 74.7048 51.863 74.4653 53.5243C74.2258 55.1857 72.8914 56.1137 72.4466 56.3887C72.0018 56.6637 71.8649 56.7668 71.8992 56.973C71.9562 57.2709 72.1615 57.2595 72.5378 57.1907C73.0625 57.099 75.8681 55.8387 75.9936 52.7567C76.1761 48.8612 72.4466 44.5761 65.843 44.6105L65.8385 44.6128ZM16.8899 61.1916C14.7914 63.4946 11.8512 64.3653 10.5852 63.6321C9.22798 62.8392 9.76402 59.4501 12.3507 56.9959C13.9246 55.5065 15.9547 54.1316 17.3005 53.2837C17.6085 53.1004 18.0533 52.8254 18.6007 52.4932C18.6452 52.4645 18.6909 52.4378 18.7376 52.413C18.8402 52.3442 18.9543 52.2869 19.0683 52.2182C20.0127 55.7012 19.1025 58.7718 16.8899 61.1893V61.1916ZM32.2139 50.7196C31.4839 52.5184 29.9465 57.1013 29.009 56.8607C28.2107 56.6545 27.7203 53.16 28.8494 49.7228C29.4196 47.9927 30.6286 45.9304 31.3471 45.1284C32.499 43.8337 33.765 43.4212 34.0615 43.9368C34.4607 44.6128 32.6701 49.5967 32.2139 50.7196ZM44.8736 56.792C44.5656 56.9524 44.2805 57.0555 44.1436 56.9753C44.041 56.918 44.2691 56.7003 44.2691 56.7003C44.2691 56.7003 45.8544 54.9932 46.4817 54.2141C46.8467 53.7558 47.2686 53.2173 47.7248 52.6215C47.7248 52.6788 47.7363 52.7361 47.7363 52.8048C47.7226 54.8557 45.7609 56.242 44.8713 56.792H44.8736ZM54.6364 54.5578C54.4083 54.3974 54.4425 53.8589 55.2066 52.1861C55.5031 51.533 56.1875 50.4331 57.3736 49.379C57.5082 49.7778 57.5812 50.1948 57.5903 50.6165C57.5789 53.1944 55.7427 54.1568 54.6364 54.5578V54.5578Z" fill="white"/>
</svg>
