<svg width="80" height="80" viewBox="0 0 80 80" fill="none" xmlns="http://www.w3.org/2000/svg">
<path d="M0 40V71C0 75.9706 4.02944 80 9 80H71C75.9706 80 80 75.9706 80 71V9C80 4.02944 75.9706 0 71 0H9C4.02944 0 0 4.02944 0 9V40Z" fill="url(#paint0_linear)"/>
<path d="M51.5885 25L51.3822 26.1197C51.0632 28.2417 51.1787 28.8488 52.0532 29.6363L52.8975 30.3637L52.023 34.4244C51.5005 36.8471 50.8597 38.8774 50.4527 39.5447C50.1035 40.1203 49.6965 40.9679 49.6085 41.4233C49.4628 41.9674 48.9678 42.5143 48.2115 42.9983C47.5433 43.3935 46.2315 44.453 45.302 45.3035C44.5595 45.9994 44.048 46.4261 43.7703 46.6094L42.8628 47.3568C42.6294 47.7172 42.4538 48.1147 42.343 48.5338C42.2798 48.8402 42.3155 49.0435 42.409 49.1924C42.4998 49.3356 42.6565 49.4359 42.871 49.4989C43.1249 49.5608 43.3863 49.583 43.6465 49.5647C44.2352 49.5228 44.8178 49.4153 45.3845 49.244C45.577 49.1896 45.7282 49.138 45.8602 49.0922C46.0637 48.8316 46.534 48.3391 47.3672 47.4828C49.5782 45.2119 50.4225 43.9691 49.5507 44.3041C49.229 44.4244 49.3747 44.1208 49.9275 43.5137C51.0935 42.331 51.7617 40.5441 53.1587 34.9399C54.2642 30.5155 54.2642 30.4525 55.0782 30.4525C55.4605 30.4525 56.5412 30.5212 56.5412 30.5212V25H54.0608H51.5885ZM62.1457 34.0636C61.9697 34.0636 61.6782 34.3385 61.505 34.642C61.186 35.1861 61.5627 35.5183 66.3642 38.6397C69.216 40.5212 71.515 42.1249 71.4572 42.248C71.3995 42.3368 69.0702 43.9147 66.279 45.7331C61.2135 49.0034 61.186 49.0349 61.6507 49.7022C62.2337 50.4897 61.6507 50.7617 68.226 46.4891L73 43.3076V40.9135L67.6732 37.4885C64.794 35.61 62.2915 34.0951 62.1457 34.0636ZM17.912 34.3986C17.7662 34.3986 15.2637 35.945 12.3845 37.7921L7 41.2171V43.6111L12.3543 47.0962C15.3243 49.0034 17.8268 50.5813 17.9423 50.5813C18.0578 50.5813 18.2915 50.3064 18.5252 49.9742C18.8745 49.3986 18.5803 49.1552 13.6633 45.9135C8.98 42.8522 8.485 42.4284 8.9525 42.0962C9.244 41.8843 11.455 40.4582 13.842 38.9147C19.2842 35.4296 18.9928 35.6701 18.5555 34.9427C18.3823 34.642 18.088 34.37 17.9148 34.3986H17.912ZM41.793 34.4645C40.99 34.4588 39.263 35.7331 34.093 40.1289C33.8703 40.6816 33.851 41.0624 33.9527 41.3087C34.0187 41.4777 34.1398 41.5951 34.3075 41.681C34.4725 41.7669 34.687 41.8184 34.9235 41.8385C35.3938 41.8814 35.9492 41.8041 36.3975 41.7125L36.7 41.6409C36.8035 41.4963 36.9395 41.3803 37.096 41.303C37.415 41.1197 38.7543 39.8482 40.0935 38.4851C42.4503 35.9994 43.003 34.8769 42.0433 34.5132C41.9645 34.4805 41.8805 34.464 41.7957 34.4645H41.793ZM47.832 36.1913C47.1252 36.2113 45.852 37.0647 43.6713 38.8774C42.5768 39.8024 41.8838 40.3007 41.5125 40.4038L40.0715 41.5893C39.5298 42.6203 39.45 43.2589 39.593 43.6111C39.6288 43.698 39.6808 43.7766 39.7459 43.8425C39.811 43.9084 39.888 43.9601 39.9725 43.9948C40.1826 44.0812 40.4066 44.125 40.6325 44.1237C41.1723 44.1177 41.7088 44.0358 42.2275 43.8803C42.4978 43.8048 42.7648 43.7168 43.0277 43.6168L43.1075 43.5825L43.2532 43.5023C43.5282 43.1329 44.1607 42.437 44.9527 41.6352C47.4552 39.1208 48.734 37.3339 48.4728 36.6667C48.3545 36.3431 48.151 36.1798 47.832 36.1913V36.1913ZM41.166 39.2841C40.9625 39.307 40.506 39.6735 39.6838 40.4238C38.4958 41.5178 37.2005 42.1478 36.7523 41.8671C36.6481 41.8916 36.5436 41.9145 36.4387 41.9359C35.9822 42.0304 35.413 42.1077 34.9043 42.0647C34.6645 42.0496 34.4296 41.9884 34.2113 41.8843C34.0053 41.7863 33.841 41.6131 33.7493 41.3975C33.6475 41.1397 33.6475 40.819 33.763 40.4095L31.9755 41.9387L27.9303 45.4238V51.0739L41.1852 40.2005C41.1827 40.0814 41.1975 39.9626 41.2292 39.8482C41.331 39.4645 41.3255 39.2698 41.166 39.2869V39.2841ZM46.8695 41.114C46.6688 41.114 46.3332 41.4089 45.797 42.0017C45.0682 42.8121 43.9215 43.5968 43.3137 43.7572L43.2202 43.8087C43.1205 43.8516 43.0196 43.8917 42.9177 43.929C42.7527 43.9863 42.5383 44.055 42.2908 44.1237C41.7958 44.264 41.1798 44.3929 40.6298 44.3786C40.3705 44.3782 40.1137 44.3257 39.8735 44.2239C39.6471 44.1268 39.4658 43.942 39.3675 43.7085C39.208 43.3104 39.2713 42.752 39.6205 41.9588L27.9275 51.5493V55H33.0645L43.96 46.0882C44.2432 45.7617 44.6695 45.315 45.2442 44.7566C46.7842 43.2703 47.1335 42.7577 47.1335 41.9989C47.1335 41.4089 47.0703 41.1111 46.8695 41.1111V41.114ZM49.4627 46.6982L48.5305 47.6661C48.008 48.1816 47.0757 48.8173 46.4377 49.0893L46.3113 49.1466L46.303 49.1609L46.2755 49.1896C46.2507 49.2096 46.2398 49.2125 46.2205 49.2211C45.9658 49.3215 45.7071 49.4103 45.445 49.4874C44.8623 49.664 44.263 49.7744 43.6575 49.8167C43.3712 49.8358 43.0838 49.8098 42.805 49.7394C42.563 49.6839 42.3494 49.537 42.2055 49.327C42.0735 49.1151 42.035 48.8316 42.1093 48.4822C42.1683 48.2335 42.256 47.9931 42.3705 47.7663L33.5787 55H45.2717L46.6688 53.3333C48.5883 51.0023 49.4627 49.3356 49.4627 47.9095V46.6982Z" fill="white"/>
<defs>
<linearGradient id="paint0_linear" x1="1.9924e-06" y1="80" x2="51.875" y2="26.25" gradientUnits="userSpaceOnUse">
<stop stop-color="#CA718D"/>
<stop offset="1" stop-color="#ED8660"/>
</linearGradient>
</defs>
</svg>
